<svg width="87" height="24" viewBox="0 0 87 24" fill="none" xmlns="http://www.w3.org/2000/svg">
<path d="M4.06673 2.09747C3.378 2.09747 2.83652 2.32407 2.44177 2.77732C2.04703 3.23051 1.8499 3.85605 1.8499 4.65382C1.8499 5.48887 2.03871 6.12058 2.41682 6.54894C2.79787 6.97734 3.34768 7.19154 4.06673 7.19154C4.37782 7.19154 4.67866 7.16362 4.9697 7.10772C5.26074 7.04873 5.56304 6.97426 5.87756 6.88421V7.83878C5.30232 8.04054 4.65028 8.14145 3.92145 8.14145C2.84826 8.14145 2.02355 7.84033 1.4488 7.23809C0.873561 6.63277 0.585938 5.76824 0.585938 4.64451C0.585938 3.93674 0.724855 3.31743 1.0022 2.78662C1.28297 2.25577 1.68751 1.84912 2.21628 1.56667C2.74456 1.28417 3.3648 1.14294 4.077 1.14294C4.82589 1.14294 5.51804 1.2888 6.15344 1.58061L5.72201 2.50726C5.4745 2.39859 5.21232 2.30391 4.93448 2.22321C4.66055 2.13939 4.37098 2.09747 4.06673 2.09747ZM11.5003 2.89838V3.75514H9.6944V8.04831H8.51065V3.75514H6.70521V2.89838H11.5003ZM15.3822 8.14145C14.6798 8.14145 14.1349 7.90708 13.747 7.43831H13.6771C13.7235 7.87293 13.747 8.13677 13.747 8.22991V10.3393H12.5686V2.89838H13.5215C13.5484 2.99461 13.6032 3.22434 13.6868 3.58753H13.747C14.1148 3.06599 14.6666 2.80524 15.4023 2.80524C16.0944 2.80524 16.633 3.03806 17.0175 3.5037C17.4054 3.96934 17.5991 4.62276 17.5991 5.46403C17.5991 6.30526 17.4019 6.96181 17.0072 7.43367C16.6159 7.90549 16.0744 8.14145 15.3822 8.14145ZM15.0966 3.69929C14.6285 3.69929 14.2856 3.82653 14.0684 4.0811C13.8541 4.33563 13.747 4.74228 13.747 5.30106V5.46403C13.747 6.09106 13.8541 6.54585 14.0684 6.82835C14.2821 7.10772 14.6314 7.2474 15.1166 7.2474C15.5246 7.2474 15.8386 7.09219 16.0592 6.78176C16.2798 6.47133 16.3904 6.02899 16.3904 5.45472C16.3904 4.87733 16.2798 4.44116 16.0592 4.14627C15.842 3.84828 15.5211 3.69929 15.0966 3.69929ZM23.889 5.46403C23.889 6.30526 23.6567 6.96181 23.1915 7.43367C22.7268 7.90549 22.0797 8.14145 21.2506 8.14145C20.7326 8.14145 20.2742 8.03278 19.8765 7.81549C19.4784 7.5982 19.1726 7.28623 18.9584 6.87957C18.7446 6.47292 18.6375 6.00106 18.6375 5.46403C18.6375 4.62898 18.8684 3.97711 19.3297 3.50834C19.7909 3.03961 20.4415 2.80524 21.2809 2.80524C22.0831 2.80524 22.7185 3.04583 23.1866 3.527C23.6547 4.00504 23.889 4.65073 23.889 5.46403ZM19.8511 5.46403C19.8511 6.65293 20.3246 7.2474 21.2706 7.2474C22.2068 7.2474 22.675 6.65293 22.675 5.46403C22.675 4.28753 22.2034 3.69929 21.2608 3.69929C20.7658 3.69929 20.4063 3.85137 20.1823 4.15557C19.9616 4.45982 19.8511 4.89595 19.8511 5.46403ZM26.3768 2.89838V5.53851C26.3768 5.84585 26.3499 6.2975 26.2966 6.89352L29.0799 2.89838H30.5195V8.04831H29.3861V5.45472C29.3861 5.31191 29.3944 5.08063 29.411 4.76089C29.4311 4.44116 29.4477 4.20834 29.4614 4.06248L26.6875 8.04831H25.2479V2.89838H26.3768ZM35.385 7.00064L35.4501 6.77713C35.5871 6.31457 35.7059 5.95915 35.8062 5.7108L37.0501 2.89838H38.6198V8.04831H37.5314V3.89019L37.4414 4.16956C37.2908 4.66935 37.1636 5.03718 37.0599 5.27313L35.8463 8.04831H34.9536L33.7395 5.25451C33.5727 4.85095 33.4186 4.39616 33.2783 3.89019V8.04831H32.1997V2.89838H33.7596L34.9634 5.62701C35.0705 5.87845 35.2109 6.33633 35.385 7.00064ZM47.7889 4.2161C47.7889 4.82456 47.4059 5.19239 46.6399 5.31968V5.35691C47.0679 5.4035 47.3956 5.5292 47.6231 5.73409C47.8505 5.93898 47.964 6.20441 47.964 6.53032C47.964 7.01771 47.7635 7.39331 47.3624 7.65719C46.9642 7.91793 46.384 8.04831 45.6219 8.04831H42.9737V2.89838H45.6117C47.063 2.89838 47.7889 3.33764 47.7889 4.2161ZM46.7553 6.46516C46.7553 6.21681 46.6516 6.04143 46.4442 5.93899C46.2373 5.83345 45.9262 5.78064 45.5114 5.78064H44.1521V7.23809H45.5417C46.3508 7.23809 46.7553 6.98043 46.7553 6.46516ZM46.61 4.30924C46.61 4.10435 46.523 3.9569 46.3493 3.8669C46.1786 3.77376 45.9228 3.72721 45.5818 3.72721H44.1521V4.96579H45.4062C45.801 4.96579 46.0999 4.91924 46.3038 4.8261C46.5078 4.72988 46.61 4.55759 46.61 4.30924ZM56.4106 8.04831H55.222V3.75514H53.6919C53.5985 4.86025 53.4713 5.72324 53.3109 6.34409C53.1539 6.96495 52.9465 7.41815 52.6892 7.70373C52.4348 7.98932 52.1037 8.13214 51.6957 8.13214C51.4384 8.13214 51.2227 8.09799 51.0491 8.02969V7.17293C51.1723 7.21639 51.2961 7.23809 51.4198 7.23809C51.7613 7.23809 52.0284 6.88266 52.2225 6.1718C52.4197 5.45781 52.5737 4.36669 52.6838 2.89838H56.4106V8.04831ZM65.5093 5.46403C65.5093 6.3084 65.2867 6.96649 64.8421 7.43831C64.4004 7.90708 63.7836 8.14145 62.9912 8.14145C62.2623 8.14145 61.6822 7.94277 61.2508 7.54543C60.8228 7.14495 60.5738 6.57224 60.5034 5.82723H59.2795V8.04831H58.1011V2.89838H59.2795V4.96579H60.5136C60.5973 4.28286 60.8546 3.75205 61.286 3.37333C61.7204 2.9946 62.2956 2.80524 63.0112 2.80524C63.7802 2.80524 64.3892 3.04583 64.8372 3.527C65.2853 4.00504 65.5093 4.65073 65.5093 5.46403ZM61.7071 5.46403C61.7071 6.05074 61.8074 6.49463 62.008 6.79575C62.212 7.09686 62.5431 7.2474 63.0014 7.2474C63.4559 7.2474 63.7856 7.09686 63.9895 6.79575C64.1935 6.49463 64.2952 6.05074 64.2952 5.46403C64.2952 4.88355 64.1935 4.44429 63.9895 4.14627C63.7856 3.84828 63.4559 3.69929 63.0014 3.69929C62.5431 3.69929 62.212 3.84828 62.008 4.14627C61.8074 4.44429 61.7071 4.88355 61.7071 5.46403ZM66.5576 4.95648C66.5576 3.80791 66.7664 2.92476 67.1842 2.307C67.6058 1.68928 68.2745 1.29193 69.1907 1.11497C69.8828 0.984595 70.6801 0.857352 71.5831 0.733154L71.7484 1.69704C70.6517 1.85226 69.8495 1.97332 69.3413 2.06024C68.816 2.15024 68.4364 2.35045 68.2026 2.66088C67.9717 2.97131 67.8382 3.43849 67.8015 4.06248H67.8763C68.0671 3.80482 68.3161 3.60615 68.6237 3.46647C68.9314 3.32365 69.2606 3.25226 69.6118 3.25226C70.2942 3.25226 70.8259 3.45248 71.2069 3.85291C71.588 4.25339 71.7787 4.81525 71.7787 5.53851C71.7787 6.36734 71.5464 7.0084 71.0817 7.4616C70.6199 7.91485 69.9797 8.14145 69.1603 8.14145C68.3478 8.14145 67.711 7.86203 67.2497 7.3033C66.7879 6.74452 66.5576 5.96223 66.5576 4.95648ZM69.2405 7.2474C70.1166 7.2474 70.5549 6.71346 70.5549 5.64563C70.5549 4.61504 70.1587 4.09972 69.3663 4.09972C69.1486 4.09972 68.9382 4.14317 68.7343 4.23009C68.5303 4.31701 68.3415 4.43185 68.1674 4.57467C67.9971 4.71744 67.8646 4.86489 67.7711 5.01701C67.7711 5.74962 67.8964 6.30527 68.1473 6.68399C68.3982 7.05963 68.7626 7.2474 69.2405 7.2474ZM74.3165 4.95648H75.44C76.2158 4.95648 76.7896 5.08063 77.1604 5.32898C77.5316 5.57734 77.7175 5.94984 77.7175 6.44654C77.7175 6.97734 77.5233 7.37778 77.1354 7.64788C76.751 7.91485 76.186 8.04831 75.44 8.04831H73.1381V2.89838H74.3165V4.95648ZM76.5484 6.47447C76.5484 6.21681 76.4452 6.03675 76.2378 5.93431C76.0339 5.83186 75.7394 5.78064 75.3549 5.78064H74.3165V7.23809H75.2043C75.6792 7.23809 76.0221 7.17602 76.2325 7.05186C76.4433 6.92767 76.5484 6.73522 76.5484 6.47447ZM79.7739 8.04831H78.5902V2.89838H79.7739V8.04831ZM82.698 5.41744L80.8373 2.89838H82.1815L83.4455 4.70037L84.7192 2.89838H86.0536L84.1875 5.41744L86.1485 8.04831H84.8146L83.4455 6.12058L82.0807 8.04831H80.7468L82.698 5.41744ZM13.2353 16.0674V18.1349H15.8489V16.0674H17.0272V21.2174H15.8489V18.9964H13.2353V21.2174H12.057V16.0674H13.2353ZM22.1888 21.2174L21.953 20.5004H21.9129C21.6453 20.8137 21.3758 21.028 21.1053 21.1429C20.8343 21.2546 20.4865 21.3105 20.0619 21.3105C19.517 21.3105 19.0905 21.1738 18.7828 20.9009C18.4785 20.6275 18.3264 20.2411 18.3264 19.7415C18.3264 19.2107 18.5387 18.8102 18.9633 18.54C19.3879 18.2698 20.035 18.1227 20.9047 18.0977L21.8625 18.0695V17.7948C21.8625 17.466 21.7788 17.2208 21.6115 17.0591C21.4477 16.8948 21.1919 16.8126 20.8446 16.8126C20.5599 16.8126 20.2874 16.8512 20.0267 16.9288C19.766 17.0065 19.5151 17.0982 19.2744 17.2035L18.8933 16.4211C19.1942 16.2754 19.5234 16.1655 19.8814 16.0905C20.239 16.0133 20.577 15.9743 20.8945 15.9743C21.5998 15.9743 22.1315 16.1173 22.4896 16.4025C22.8506 16.6881 23.0311 17.1368 23.0311 17.7485V21.2174H22.1888ZM20.4332 20.4722C20.8612 20.4722 21.2036 20.3623 21.4614 20.1416C21.7221 19.9182 21.8527 19.6062 21.8527 19.2057V18.7589L21.1405 18.7866C20.5853 18.8052 20.1808 18.8924 19.9264 19.0477C19.6755 19.1998 19.5503 19.4341 19.5503 19.7506C19.5503 19.9804 19.6236 20.1589 19.7709 20.286C19.9181 20.4104 20.1387 20.4722 20.4332 20.4722ZM29.5265 16.0674V21.2174H28.3427V16.9334H25.8549V21.2174H24.6766V16.0674H29.5265ZM34.0306 21.3105C33.3286 21.3105 32.7832 21.0762 32.3954 20.6075H32.3254C32.3719 21.0421 32.3954 21.3059 32.3954 21.399V23.5084H31.217V16.0674H32.1699C32.1968 16.1636 32.2515 16.3934 32.3352 16.7567H32.3954C32.7632 16.2349 33.315 15.9743 34.0506 15.9743C34.7428 15.9743 35.2813 16.2072 35.6658 16.6727C36.0537 17.1386 36.2474 17.7921 36.2474 18.6331C36.2474 19.4745 36.0503 20.1307 35.6555 20.6025C35.2647 21.0748 34.7227 21.3105 34.0306 21.3105ZM33.7449 16.8684C33.2768 16.8684 32.9339 16.9956 32.7167 17.2503C32.5025 17.5046 32.3954 17.9115 32.3954 18.47V18.6331C32.3954 19.2602 32.5025 19.7148 32.7167 19.9972C32.9305 20.2769 33.2797 20.4163 33.765 20.4163C34.1729 20.4163 34.4869 20.2615 34.7076 19.9509C34.9287 19.6403 35.0387 19.198 35.0387 18.624C35.0387 18.0464 34.9287 17.6104 34.7076 17.3153C34.4904 17.0174 34.1695 16.8684 33.7449 16.8684ZM41.0875 21.2174L40.8518 20.5004H40.8117C40.5441 20.8137 40.2751 21.028 40.0041 21.1429C39.7336 21.2546 39.3858 21.3105 38.9612 21.3105C38.4158 21.3105 37.9897 21.1738 37.6821 20.9009C37.3778 20.6275 37.2257 20.2411 37.2257 19.7415C37.2257 19.2107 37.438 18.8102 37.8626 18.54C38.2872 18.2698 38.9343 18.1227 39.8035 18.0977L40.7618 18.0695V17.7948C40.7618 17.466 40.6781 17.2208 40.5108 17.0591C40.347 16.8948 40.0911 16.8126 39.7434 16.8126C39.4592 16.8126 39.1867 16.8512 38.926 16.9288C38.6653 17.0065 38.4143 17.0982 38.1737 17.2035L37.7921 16.4211C38.0935 16.2754 38.4226 16.1655 38.7807 16.0905C39.1383 16.0133 39.4758 15.9743 39.7937 15.9743C40.4991 15.9743 41.0308 16.1173 41.3889 16.4025C41.7498 16.6881 41.9303 17.1368 41.9303 17.7485V21.2174H41.0875ZM39.332 20.4722C39.76 20.4722 40.1029 20.3623 40.3602 20.1416C40.6214 19.9182 40.7515 19.6062 40.7515 19.2057V18.7589L40.0393 18.7866C39.4841 18.8052 39.0796 18.8924 38.8257 19.0477C38.5748 19.1998 38.4495 19.4341 38.4495 19.7506C38.4495 19.9804 38.5229 20.1589 38.6702 20.286C38.8174 20.4104 39.038 20.4722 39.332 20.4722ZM48.3905 17.3852C48.3905 17.9937 48.0075 18.3615 47.242 18.4887V18.5259C47.67 18.5727 47.9978 18.6985 48.2252 18.9033C48.4522 19.1081 48.5661 19.3733 48.5661 19.6993C48.5661 20.1866 48.3656 20.5626 47.964 20.8264C47.5663 21.0871 46.9862 21.2174 46.2236 21.2174H43.5754V16.0674H46.2138C47.6651 16.0674 48.3905 16.5065 48.3905 17.3852ZM47.3575 19.6344C47.3575 19.386 47.2538 19.2107 47.0464 19.1081C46.839 19.0027 46.5279 18.9496 46.1135 18.9496H44.7542V20.4073H46.1434C46.9529 20.4073 47.3575 20.1493 47.3575 19.6344ZM47.2117 17.4783C47.2117 17.2735 47.1251 17.1259 46.951 17.036C46.7803 16.9429 46.5249 16.8961 46.1835 16.8961H44.7542V18.1349H46.0079C46.4026 18.1349 46.702 18.0881 46.906 17.9951C47.1099 17.8988 47.2117 17.7267 47.2117 17.4783ZM54.344 21.2174H53.1553V16.9243H51.6258C51.5319 18.0291 51.4052 18.8924 51.2442 19.5131C51.0872 20.1339 50.8798 20.5871 50.6225 20.8727C50.3682 21.1584 50.0375 21.3014 49.6296 21.3014C49.3718 21.3014 49.1561 21.2669 48.9824 21.1988V20.3419C49.1062 20.3855 49.2299 20.4073 49.3537 20.4073C49.6946 20.4073 49.9622 20.0517 50.1559 19.341C50.3535 18.6267 50.5071 17.5359 50.6176 16.0674H54.344V21.2174ZM58.4572 21.3105C57.5944 21.3105 56.9189 21.0775 56.4307 20.6121C55.9459 20.1434 55.7033 19.4991 55.7033 18.6798C55.7033 17.8384 55.9293 17.1772 56.3803 16.6959C56.8318 16.215 57.452 15.9743 58.2415 15.9743C58.9738 15.9743 59.552 16.1809 59.977 16.5937C60.4016 17.0065 60.6139 17.5745 60.6139 18.2979V18.8892H56.9174C56.934 19.3892 57.0793 19.7738 57.3537 20.044C57.6276 20.311 58.0141 20.4445 58.512 20.4445C58.8398 20.4445 59.144 20.4163 59.4253 20.3605C59.7095 20.3015 60.0137 20.2052 60.338 20.0721V20.9613C60.0504 21.0884 59.7594 21.1788 59.4654 21.2315C59.1709 21.2841 58.8349 21.3105 58.4572 21.3105ZM58.2415 16.803C57.8668 16.803 57.566 16.9134 57.3386 17.1336C57.1145 17.3543 56.981 17.6754 56.9375 18.0977H59.4551C59.4483 17.6722 59.3382 17.3511 59.1239 17.1336C58.9102 16.9134 58.6157 16.803 58.2415 16.803ZM63.1316 16.0674V18.1349H65.7451V16.0674H66.9234V21.2174H65.7451V18.9964H63.1316V21.2174H61.9532V16.0674H63.1316ZM69.7424 16.0674V18.7075C69.7424 19.015 69.7155 19.4668 69.6622 20.0626L72.4459 16.0674H73.8855V21.2174H72.7517V18.624C72.7517 18.4809 72.76 18.2498 72.7766 17.9301C72.7972 17.6104 72.8138 17.3775 72.827 17.2317L70.0535 21.2174H68.6139V16.0674H69.7424ZM76.1322 21.2174H74.8134L76.3582 19.1081C75.9835 19.0086 75.6895 18.832 75.4753 18.5772C75.2615 18.3197 75.1544 18.0014 75.1544 17.6227C75.1544 17.1354 75.3417 16.7549 75.7159 16.482C76.0906 16.2054 76.6022 16.0674 77.2509 16.0674H79.7788V21.2174H78.595V19.2339H77.4764L76.1322 21.2174ZM76.3029 17.6318C76.3029 17.8961 76.41 18.0945 76.6238 18.228C76.8414 18.3583 77.132 18.4237 77.4964 18.4237H78.595V16.8961H77.311C76.9901 16.8961 76.7407 16.9601 76.5636 17.0873C76.39 17.2144 76.3029 17.3961 76.3029 17.6318ZM82.698 18.5868L80.8373 16.0674H82.1815L83.4455 17.8693L84.7192 16.0674H86.0536L84.1875 18.5868L86.1485 21.2174H84.8146L83.4455 19.2897L82.0807 21.2174H80.7468L82.698 18.5868Z" fill="#212D55"/>
</svg>
